<mxfile host="app.diagrams.net" modified="2024-08-06T08:20:45.420Z" agent="Mozilla/5.0 (Windows NT 10.0; Win64; x64) AppleWebKit/537.36 (KHTML, like Gecko) Chrome/127.0.0.0 Safari/537.36" version="24.7.1" etag="UFa9s49AFlV6R10q0FUW" type="github">
  <diagram name="第 1 页" id="ik1X1Bv1Z2l4SbNnkqcV">
    <mxGraphModel>
      <root>
        <mxCell id="0" />
        <mxCell id="1" parent="0" />
      </root>
    </mxGraphModel>
  </diagram>
</mxfile>
